HIERARCHY
ROOT Hips
{
	OFFSET 0.000000 0.000000 0.000000
	CHANNELS 6 Xposition Yposition Zposition Zrotation Yrotation Xrotation 
	JOINT LowerBack
	{
		OFFSET 0.000000 0.000000 0.000000
		CHANNELS 3 Zrotation Yrotation Xrotation
		JOINT Spine
		{
			OFFSET 0.028270 2.035590 -0.193380
			CHANNELS 3 Zrotation Yrotation Xrotation
			JOINT Spine1
			{
				OFFSET 0.056720 2.048850 -0.042750
				CHANNELS 3 Zrotation Yrotation Xrotation
				JOINT Neck
				{
					OFFSET 0.000000 0.000000 0.000000
					CHANNELS 3 Zrotation Yrotation Xrotation
					JOINT Neck1
					{
						OFFSET -0.054170 1.746240 0.172020
						CHANNELS 3 Zrotation Yrotation Xrotation
						JOINT Head
						{
							OFFSET 0.104070 1.761360 -0.123970
							CHANNELS 3 Zrotation Yrotation Xrotation
							End Site
							{
								OFFSET 0.000000 0.000000 0.000000
							}
						}
					}
				}
				JOINT LeftShoulder
				{
					OFFSET 0.000000 0.000000 0.000000
					CHANNELS 3 Zrotation Yrotation Xrotation
					JOINT LeftArm
					{
						OFFSET 3.362410 1.200890 -0.311210
						CHANNELS 3 Zrotation Yrotation Xrotation
						JOINT LeftForeArm
						{
							OFFSET 4.983000 -0.000000 -0.000000
							CHANNELS 3 Zrotation Yrotation Xrotation
							JOINT LeftHand
							{
								OFFSET 3.483560 -0.000000 -0.000000
								CHANNELS 3 Zrotation Yrotation Xrotation
								JOINT LeftFingerBase
								{
									OFFSET 0.000000 0.000000 0.000000
									CHANNELS 3 Zrotation Yrotation Xrotation
									JOINT LeftHandIndex1
									{
										OFFSET 0.715260 -0.000000 -0.000000
										CHANNELS 3 Zrotation Yrotation Xrotation
										End Site
										{
											OFFSET 0.000000 0.000000 0.000000
										}
									}
								}
								JOINT LThumb
								{
									OFFSET 0.000000 0.000000 0.000000
									CHANNELS 3 Zrotation Yrotation Xrotation
									End Site
									{
										OFFSET 0.000000 0.000000 0.000000
									}
								}
							}
						}
					}
				}
				JOINT RightShoulder
				{
					OFFSET 0.000000 0.000000 0.000000
					CHANNELS 3 Zrotation Yrotation Xrotation
					JOINT RightArm
					{
						OFFSET -3.136600 1.374050 -0.404650
						CHANNELS 3 Zrotation Yrotation Xrotation
						JOINT RightForeArm
						{
							OFFSET -5.241900 -0.000000 -0.000000
							CHANNELS 3 Zrotation Yrotation Xrotation
							JOINT RightHand
							{
								OFFSET -3.444170 -0.000000 -0.000000
								CHANNELS 3 Zrotation Yrotation Xrotation
								JOINT RightFingerBase
								{
									OFFSET 0.000000 0.000000 0.000000
									CHANNELS 3 Zrotation Yrotation Xrotation
									JOINT RightHandIndex1
									{
										OFFSET -0.622530 -0.000000 -0.000000
										CHANNELS 3 Zrotation Yrotation Xrotation
										End Site
										{
											OFFSET 0.000000 0.000000 0.000000
										}
									}
								}
								JOINT RThumb
								{
									OFFSET 0.000000 0.000000 0.000000
									CHANNELS 3 Zrotation Yrotation Xrotation
									End Site
									{
										OFFSET 0.000000 0.000000 0.000000
									}
								}
							}
						}
					}
				}
			}
		}
	}
}
}
MOTION
Frames: 7
Frame Time: 0.008333
1.015015 15.339694 -1.586118 -120.313537 84.443450 -92.009077 8.898259 -2.457641 11.225315 0.999345 -2.429587 -0.772723 -6.210501 -2.355518 -0.829639 9.128515 -9.728916 -7.697236 -3.458281 -0.224688 -0.494372 0.000000 0.000000 0.000000 4.276353 8.771900 1.573941 -58.673747 -1.356171 -2.443787 -178.811363 -74.176321 179.991818 0.797878 3.423190 0.024752 -0.089433 0.369855 0.000000 0.000000 0.000000 0.000000 0.000000 0.000000 0.000000 11.450646 -5.580740 0.934980 70.550441 -6.759319 0.189978 0.189694 82.352116 -0.060983 -13.246432 -0.182878 -0.009562 0.186422 -0.271613 -0.000000 0.000000 0.000000 0.000000 0.000000 0.000000 0.000000 
1.212166 15.322604 -1.615129 -124.335390 84.197915 -96.052484 9.103227 -2.487266 11.321317 1.036679 -2.463015 -0.776528 -6.211771 -2.395030 -0.920385 9.288045 -9.442386 -7.647244 -3.494632 -0.227387 -0.485037 0.000000 0.000000 0.000000 4.035113 8.578277 1.637778 -59.446827 -0.586186 -2.302079 -178.911855 -75.159274 179.989019 1.168027 3.668098 0.037563 -0.093683 0.359240 0.000000 0.000000 0.000000 0.000000 0.000000 0.000000 0.000000 11.791326 -5.337276 0.953605 70.206798 -6.102622 -0.046556 0.197221 82.038386 -0.062423 -13.481141 -0.311248 0.005719 0.189183 -0.271133 -0.000000 0.000000 0.000000 0.000000 0.000000 0.000000 0.000000 
1.404892 15.310516 -1.644536 -128.616672 83.854805 -100.306845 9.324617 -2.504728 11.391821 1.074348 -2.487055 -0.783165 -6.220439 -2.425708 -1.004979 9.488095 -9.165971 -7.588963 -3.529132 -0.230016 -0.473319 0.000000 0.000000 0.000000 3.805088 8.366271 1.690185 -60.297383 0.056564 -2.093923 -179.025912 -76.322613 179.985746 1.618138 3.941177 0.054971 -0.098500 0.348586 0.000000 0.000000 0.000000 0.000000 0.000000 0.000000 0.000000 12.175563 -5.120638 0.972596 69.870447 -5.379710 -0.318301 0.204925 81.689962 -0.064025 -13.739790 -0.480124 0.026497 0.192030 -0.270239 -0.000000 0.000000 0.000000 0.000000 0.000000 0.000000 0.000000 
1.593343 15.303362 -1.673750 -132.937874 83.418056 -104.547237 9.549228 -2.507681 11.428882 1.110303 -2.498963 -0.793284 -6.235663 -2.444622 -1.080389 9.724093 -8.904976 -7.526247 -3.558935 -0.232354 -0.460097 0.000000 0.000000 0.000000 3.590151 8.145873 1.731888 -61.205569 0.567649 -1.812329 -179.150642 -77.670902 179.982159 2.133557 4.226663 0.077077 -0.103540 0.338128 0.000000 0.000000 0.000000 0.000000 0.000000 0.000000 0.000000 12.587513 -4.930281 0.990457 69.561095 -4.605623 -0.627407 0.212325 81.319309 -0.065758 -14.013203 -0.682266 0.052372 0.194838 -0.269091 -0.000000 0.000000 0.000000 0.000000 0.000000 0.000000 0.000000 
1.777757 15.300826 -1.702306 -137.132532 82.898051 -108.605174 9.762210 -2.494756 11.427562 1.142357 -2.496860 -0.807416 -6.255859 -2.449707 -1.145135 9.987609 -8.660480 -7.461645 -3.581410 -0.234211 -0.445938 0.000000 0.000000 0.000000 3.391764 7.925169 1.764878 -62.149092 0.951771 -1.451703 -179.282289 -79.201208 179.978435 2.695701 4.507931 0.103476 -0.108476 0.328040 0.000000 0.000000 0.000000 0.000000 0.000000 0.000000 0.000000 13.006919 -4.760489 1.005848 69.297717 -3.799408 -0.973578 0.218873 80.940546 -0.067592 -14.292306 -0.907968 0.082144 0.197478 -0.267888 -0.000000 0.000000 0.000000 0.000000 0.000000 0.000000 0.000000 
1.958423 15.302496 -1.729819 -141.098303 82.312616 -112.381510 9.947246 -2.465384 11.387643 1.168067 -2.479522 -0.825400 -6.278787 -2.439544 -1.198369 10.267681 -8.431690 -7.397039 -3.594163 -0.235420 -0.431294 0.000000 0.000000 0.000000 3.208854 7.712684 1.792067 -63.105042 1.220337 -1.008474 -179.417008 -80.909223 179.974752 3.282756 4.770924 0.133169 -0.113017 0.318366 0.000000 0.000000 0.000000 0.000000 0.000000 0.000000 0.000000 13.411711 -4.603591 1.017199 69.097274 -2.978257 -1.351015 0.224040 80.566881 -0.069503 -14.569393 -1.145444 0.114615 0.199850 -0.266847 -0.000000 0.000000 0.000000 0.000000 0.000000 0.000000 0.000000 
2.135652 15.307892 -1.756107 -144.784687 81.682261 -115.832806 10.089608 -2.419653 11.313253 1.185252 -2.446290 -0.846735 -6.301772 -2.413338 -1.240783 10.550745 -8.214077 -7.332312 -3.595497 -0.235878 -0.416124 0.000000 0.000000 0.000000 3.038208 7.513819 1.816961 -64.051526 1.392089 -0.482931 -179.550965 -82.782163 179.971294 3.873110 5.007344 0.164854 -0.116957 0.309014 0.000000 0.000000 0.000000 0.000000 0.000000 0.000000 0.000000 13.779013 -4.448682 1.023237 68.972357 -2.159416 -1.750564 0.227340 80.210975 -0.071464 -14.836849 -1.382495 0.148085 0.201860 -0.266177 -0.000000 0.000000 0.000000 0.000000 0.000000 0.000000 0.000000 
